<?xml version="1.0"?>
<svg xmlns="http://www.w3.org/2000/svg" height="512px" viewBox="0 0 512 512.19175" width="512px"><path d="m288.484375 284.734375c-13.996094-11.398437-32.957031-14.585937-49.910156-8.386719-16.953125 6.199219-29.390625 20.863282-32.734375 38.601563-3.113282 16.335937 1.992187 33.15625 13.652344 45.003906 1.597656 1.585937 2.515624 3.726563 2.5625 5.976563v35.140624c0 4.578126 1.816406 8.96875 5.054687 12.203126 3.238281 3.238281 7.628906 5.058593 12.207031 5.058593h33.742188c9.527344-.015625 17.246094-7.734375 17.261718-17.261719v-35.082031c.015626-2.242187.914063-4.386719 2.5-5.972656 10.046876-10.253906 15.304688-24.269531 14.480469-38.605469-.824219-14.332031-7.65625-27.652344-18.816406-36.683594zm-7.875 63.367187c-4.714844 4.773438-7.359375 11.210938-7.355469 17.921876l-.195312 35.242187-33.9375-.15625v-35.136719c-.023438-6.714844-2.683594-13.152344-7.40625-17.921875-8.617188-8.847656-11.761719-21.667969-8.214844-33.496093 3.542969-11.828126 13.21875-20.804688 25.28125-23.457032 2.460938-.507812 4.96875-.765625 7.484375-.765625 7.820313-.011719 15.40625 2.703125 21.441406 7.679688 7.984375 6.460937 12.621094 16.183593 12.613281 26.453125-.003906 8.847656-3.492187 17.339844-9.710937 23.636718zm0 0" fill="#D80027"/><path d="m475.597656 151.238281c11.230469 5.375 24.703125 1.871094 31.894532-8.292969 7.191406-10.164062 6.011718-24.035156-2.796876-32.835937-10.132812-9.660156-26.066406-9.660156-36.199218 0-7.710938 7.636719-9.695313 19.34375-4.933594 29.097656h-.066406l-32.375 32.390625-34.9375-34.933594 28.160156-28.015624c1.609375-1.601563 2.511719-3.78125 2.511719-6.050782v-52.90625c11.703125-4.40625 18.527343-16.605468 16.160156-28.882812-2.367187-12.28125-13.238281-21.066406-25.742187-20.80468775-12.503907.26562475-22.996094 9.49999975-24.847657 21.86718775-1.851562 12.367187 5.484375 24.269531 17.359375 28.179687v49.039063l-56.019531 55.742187c-14.503906-41.476562-53.640625-69.25-97.578125-69.25s-83.074219 27.773438-97.578125 69.25l-56.023437-55.785156v-49.039063c11.789062-3.9375 19.03125-15.792968 17.152343-28.082031-1.882812-12.285156-12.339843-21.433593-24.765625-21.664062-12.429687-.230469-23.21875 8.523437-25.550781 20.734375-2.335937 12.207031 4.460937 24.324218 16.097656 28.695312v52.90625c0 2.273438.90625 4.449219 2.519531 6.050782l28.160157 28.015624-34.945313 34.933594-32.367187-32.367187h-.066407c4.761719-9.75 2.78125-21.449219-4.925781-29.089844-10.132812-9.667969-26.074219-9.667969-36.207031 0-8.890625 8.78125-10.121094 22.710937-2.902344 32.914063 7.21875 10.203124 20.761719 13.679687 32 8.21875v.066406l32.402344 32.324218-32.367188 32.367188c-.050781.050781-.058593.121094-.109374.171875-9.75-4.472656-21.238282-2.5625-29.015626 4.820313-9.996093 10-9.996093 26.207031 0 36.207031 10 10 26.210938 10 36.207032 0 7.714844-7.640625 9.695312-19.34375 4.933594-29.097657h.066406l79.402344-79.359374 25.859374 25.71875c-.53125 4.003906-.816406 8.042968-.855468 12.082031v53.128906c-13.960938.246094-25.148438 11.636719-25.148438 25.601563v25.027343h-18.59375c-1.25-3.597656-3.289062-6.863281-5.972656-9.566406-10.132812-9.667969-26.074219-9.667969-36.207031 0-7.492188 7.421875-9.671875 18.675781-5.484375 28.355469 4.1875 9.679687 13.882812 15.800781 24.421875 15.417968 10.539062-.378906 19.765625-7.183593 23.242187-17.140624h18.621094v22.066406l-52.234375 52.234375c-1.605469 1.59375-3.777344 2.492187-6.039063 2.5h-20.082031c-1.25-3.597657-3.289062-6.867188-5.972656-9.566407-10.132813-9.667968-26.074219-9.667968-36.207031 0-4.800782 4.800782-7.5 11.3125-7.5 18.101563 0 6.792969 2.699218 13.304687 7.5 18.105469 6.179687 6.273437 15.167968 8.90625 23.757812 6.957031s15.558594-8.203125 18.421875-16.53125h18.621094v61.4375c-3.589844 1.164063-6.863281 3.140625-9.566406 5.777344-4.800781 4.800781-7.5 11.316406-7.5 18.105469 0 6.789062 2.699219 13.300781 7.5 18.101562 6.46875 6.46875 15.894531 8.996094 24.730469 6.628906 8.835937-2.367187 15.738281-9.269531 18.105468-18.105468 2.367188-8.835938-.160156-18.261719-6.628906-24.730469-2.703125-2.636719-5.980469-4.613281-9.574219-5.777344v-63.144531c-.003906-2.109375.835938-4.136719 2.332031-5.625l40.335938-40.335938v73.265625c0 14.140625 11.460938 25.601563 25.597656 25.601563h204.800782c14.140624 0 25.601562-11.460938 25.601562-25.601563v-73.265625l31.785156 31.785156c1.496094 1.5 2.339844 3.527344 2.347656 5.640626v71.679687c-3.589843 1.164063-6.867187 3.140625-9.566406 5.777344-10 9.996093-10.003906 26.207031-.007812 36.207031s26.207031 10.003906 36.207031.011719c9.992187-10 9.992187-26.203125 0-36.199219-2.699219-2.644531-5.972656-4.628906-9.566406-5.796875v-69.972656h27.152343c2.910157 8.28125 9.867188 14.488281 18.429688 16.433593 8.558594 1.945313 17.515625-.644531 23.71875-6.859374 9.992188-9.996094 9.992188-26.199219 0-36.195313-10.132812-9.671875-26.074219-9.671875-36.207031 0-2.683594 2.703125-4.726563 5.972656-5.972657 9.574219h-28.527343c-2.304688-.003906-4.515625-.925782-6.136719-2.5625l-43.65625-43.65625v-22.066406h18.621094c3.464844 9.972656 12.695312 16.796874 23.246094 17.179687 10.550781.386719 20.253906-5.746094 24.4375-15.4375 4.183593-9.695313 1.988281-20.960937-5.53125-28.375-10.132813-9.660156-26.066407-9.660156-36.199219 0-2.679688 2.703125-4.722657 5.976563-5.972657 9.574219h-18.601562v-25.15625c0-13.964844-11.1875-25.351563-25.148438-25.601563v-53.085937c-.023437-4.039063-.292968-8.074219-.808593-12.082032l25.855469-25.71875 79.402343 79.402344h.066407c-5.570313 11.730469-1.457032 25.773438 9.566406 32.644532 11.019531 6.867187 25.441406 4.378906 33.519531-5.792969 8.074219-10.167969 7.238281-24.777344-1.945313-33.960938-7.777343-7.382812-19.265624-9.289062-29.015624-4.820312-.050782-.050781-.058594-.121094-.109376-.171875l-32.382812-32.332032 32.367188-32.367187zm-57.847656-133.972656c4.710938 0 8.53125 3.820313 8.53125 8.53125 0 4.714844-3.820312 8.535156-8.53125 8.535156-4.714844 0-8.535156-3.820312-8.535156-8.535156 0-4.710937 3.820312-8.53125 8.535156-8.53125zm-323.125 0c4.714844 0 8.535156 3.820313 8.535156 8.53125 0 4.714844-3.820312 8.535156-8.535156 8.535156-4.710938 0-8.53125-3.820312-8.53125-8.535156 0-4.710937 3.820312-8.53125 8.53125-8.53125zm-74.871094 116.964844c-3.332031-3.332031-3.332031-8.734375 0-12.066407 2.140625-2.21875 5.316406-3.105468 8.296875-2.324218 2.984375.777344 5.316407 3.109375 6.097657 6.09375.78125 2.980468-.109376 6.15625-2.328126 8.296875-3.375 3.226562-8.691406 3.226562-12.066406 0zm12.066406 110.933593c-3.375 3.226563-8.691406 3.226563-12.066406 0-3.332031-3.332031-3.332031-8.734374 0-12.066406 2.140625-2.21875 5.316406-3.105468 8.296875-2.328125 2.984375.78125 5.316407 3.113281 6.097657 6.097657.78125 2.980468-.109376 6.15625-2.328126 8.296874zm59.734376 59.734376c-3.375 3.226562-8.691407 3.226562-12.066407 0-3.332031-3.332032-3.332031-8.734376 0-12.066407 2.140625-2.21875 5.3125-3.109375 8.296875-2.328125s5.3125 3.113282 6.09375 6.09375c.78125 2.984375-.105468 6.15625-2.324218 8.300782zm-59.734376 93.867187c-3.375 3.226563-8.691406 3.226563-12.066406 0-2.441406-2.441406-3.171875-6.113281-1.851562-9.300781 1.320312-3.1875 4.433594-5.269532 7.882812-5.269532 3.453125 0 6.566406 2.082032 7.886719 5.269532s.589844 6.859375-1.851563 9.300781zm51.199219 93.867187c-3.375 3.226563-8.691406 3.226563-12.066406 0-2.441406-2.441406-3.171875-6.113281-1.851563-9.300781 1.320313-3.191406 4.433594-5.269531 7.886719-5.269531 3.449219 0 6.5625 2.078125 7.882813 5.269531 1.320312 3.1875.589844 6.859375-1.851563 9.300781zm349.867188 0c-3.375 3.226563-8.691407 3.226563-12.066407 0-2.441406-2.441406-3.171874-6.113281-1.851562-9.300781 1.320312-3.191406 4.433594-5.269531 7.886719-5.269531 3.449219 0 6.5625 2.078125 7.882812 5.269531 1.320313 3.1875.589844 6.859375-1.851562 9.300781zm47.667969-114.46875c2.140624-2.21875 5.3125-3.105468 8.296874-2.324218 2.984376.777344 5.316407 3.109375 6.09375 6.09375.78125 2.980468-.105468 6.15625-2.324218 8.296875-3.375 3.226562-8.691406 3.226562-12.066406 0-3.332032-3.332031-3.332032-8.734375 0-12.066407zm-59.734376-85.332031c3.332032-3.332031 8.734376-3.332031 12.066407 0s3.332031 8.734375 0 12.066407c-3.375 3.226562-8.691407 3.226562-12.066407 0-3.332031-3.332032-3.332031-8.734376 0-12.066407zm-164.632812-190.234375c46.832031-.460937 85.203125 37.070313 85.785156 83.898438v53.085937h-17.066406v-53.085937c-1.015625-37.21875-31.484375-66.867188-68.71875-66.867188-37.238281 0-67.703125 29.648438-68.71875 66.867188v53.085937h-17.066406v-53.085937c.578125-46.828125 38.953125-84.359375 85.785156-83.898438zm51.652344 136.984375h-103.304688v-53.085937c1.011719-27.792969 23.835938-49.804688 51.652344-49.804688 27.8125 0 50.640625 22.011719 51.652344 49.804688zm59.28125 25.601563v161.679687c0 4.714844-3.820313 8.535157-8.535156 8.535157h-204.800782c-4.710937 0-8.53125-3.820313-8.53125-8.535157v-161.679687c0-4.710938 3.820313-8.535156 8.53125-8.535156h204.800782c4.714843 0 8.535156 3.824218 8.535156 8.535156zm119.464844-34.585938c2.265624-.003906 4.4375.894532 6.035156 2.5 3.332031 3.332032 3.332031 8.734375 0 12.066406-3.375 3.226563-8.691406 3.226563-12.066406 0-2.441407-2.441406-3.171876-6.109374-1.851563-9.296874s4.433594-5.269532 7.882813-5.269532zm-6.03125-108.433594c3.332031-3.332031 8.734374-3.332031 12.066406 0 3.332031 3.332032 3.332031 8.734376 0 12.066407-3.375 3.226562-8.691406 3.226562-12.066406 0-3.332032-3.332031-3.332032-8.734375 0-12.066407zm0 0" fill="#D80027"/></svg>
